<svg xmlns="http://www.w3.org/2000/svg" width="665.074" height="694.637" viewBox="0 0 665.074 694.637">
  <g id="OnBoarding3" transform="translate(-65.179 -526.74)">
    <g id="Scene_Home" data-name="Scene/Home" transform="translate(276.757 526.74)">
      <g id="Mobile3" transform="translate(56.234)">
        <rect id="Container" width="159" height="302" rx="8" fill="#f2f2f2"/>
        <circle id="Touch" cx="15" cy="15" r="15" transform="translate(64 253)" fill="#fff"/>
        <g id="Camera" transform="translate(64 16)">
          <circle id="Lens" cx="2" cy="2" r="2" fill="#fff"/>
          <rect id="Sensor" width="21" height="4" rx="2" transform="translate(9)" fill="#fff"/>
        </g>
        <g id="Rows" transform="translate(14 28)">
          <g id="Row">
            <rect id="Background" width="131" height="54" rx="4" fill="#fff"/>
            <g id="Text" transform="translate(39 16.2)">
              <rect id="Name" width="73" height="8.1" rx="3" fill="#dde3e9"/>
              <rect id="Name-2" data-name="Name" width="49" height="8.1" rx="3" transform="translate(0 13.5)" fill="#dde3e9"/>
            </g>
            <circle id="Avatar" cx="12" cy="12" r="12" transform="translate(9 15)" fill="#ef84c6"/>
          </g>
          <g id="Row-2" data-name="Row" transform="translate(0 62)">
            <rect id="Background-2" data-name="Background" width="131" height="42" rx="4" fill="#fff"/>
            <g id="Text-2" data-name="Text" transform="translate(39 12.6)">
              <rect id="Name-3" data-name="Name" width="73" height="6.3" rx="3" fill="#dde3e9"/>
              <rect id="Name-4" data-name="Name" width="49" height="6.3" rx="3" transform="translate(0 10.5)" fill="#dde3e9"/>
            </g>
            <circle id="Avatar-2" data-name="Avatar" cx="12" cy="12" r="12" transform="translate(9 9)" fill="#ef84c6"/>
          </g>
          <g id="Row-3" data-name="Row" transform="translate(0 112)">
            <rect id="Background-3" data-name="Background" width="131" height="42" rx="4" fill="#fff"/>
            <g id="Text-3" data-name="Text" transform="translate(39 12.6)">
              <rect id="Name-5" data-name="Name" width="73" height="6.3" rx="3" fill="#dde3e9"/>
              <rect id="Name-6" data-name="Name" width="49" height="6.3" rx="3" transform="translate(0 10.5)" fill="#dde3e9"/>
            </g>
            <circle id="Avatar-3" data-name="Avatar" cx="12" cy="12" r="12" transform="translate(9 9)" fill="#f2ddc5"/>
          </g>
          <g id="Row-4" data-name="Row" transform="translate(0 162)">
            <rect id="Background-4" data-name="Background" width="131" height="42" rx="4" fill="#fff"/>
            <g id="Text-4" data-name="Text" transform="translate(39 12.6)">
              <rect id="Name-7" data-name="Name" width="73" height="6.3" rx="3" fill="#dde3e9"/>
              <rect id="Name-8" data-name="Name" width="49" height="6.3" rx="3" transform="translate(0 10.5)" fill="#dde3e9"/>
            </g>
            <circle id="Avatar-4" data-name="Avatar" cx="12" cy="12" r="12" transform="translate(9 9)" fill="#c7cbf2"/>
          </g>
        </g>
      </g>
      <g id="Group_3" data-name="Group 3" transform="translate(0 203.5)">
        <path id="Head" d="M0,0,9.281,43.29C4.105,49.37.6,56.822,1.187,65.17c1.687,24.056,35.151,18.764,41.66,6.623s5.736-42.94-2.676-45.11c-3.355-.865-10.5,1.254-17.777,5.642L26.96,0Z" transform="translate(234.026 79.054) rotate(180)" fill="#b28b67"/>
        <path id="hair" d="M.1,24.712A30.861,30.861,0,0,1,1.548,19.9,22.515,22.515,0,0,1,4.386,14.62a39.9,39.9,0,0,1,7.5-8.145c5.15-4.2,11.706-6.629,18.153-5.841a18.627,18.627,0,0,1,9.1,3.708c2.43,1.869,4.767,4.619,7.914,4.817,3.424.215,6.562-2.809,9.308-4.677A25,25,0,0,1,66.374.246,16.633,16.633,0,0,1,82.307,6.273c4.445,5.3,7.677,13.062,4.757,20.079a9,9,0,0,1-2.243,3.315c-.919.836-2.322,1.725-2.695,3.06-.4,1.419.786,3.251,1.245,4.532a13.346,13.346,0,0,1,1,5.756c-.315,3.276-2.372,6.4-4.544,8.556A15.1,15.1,0,0,1,72,55.6a21.975,21.975,0,0,1-5.895.455,18.334,18.334,0,0,1-2.791-.561,2.523,2.523,0,0,0-2.22.541,18.207,18.207,0,0,1-11.741,2.912c-3.543-.3-7.626-1.154-10.515-3.583-3.209-2.7-3.145-6.417-2.39-10.392-.8.4-3.014.643-1.691-.939a7.16,7.16,0,0,1,2.186-1.25A7.955,7.955,0,0,0,39.123,41.1c2.455-2.826-.025-8.576-3.11-9.523-4.584-1.408-5.61,5.079-8.882,6.757-1.881.965-3.849-.354-5.259-1.7A21.073,21.073,0,0,1,17.586,30c-.915-2-1.767-4.033-2.7-6.026-.436-.931-1.944-3.561-1.186-4.613-3.283-.655-6.94.71-9.767,2.5A6.682,6.682,0,0,0,1.25,24.729c-.134.28-.424,1.112-.789,1.146-.68.064-.426-.768-.359-1.163" transform="translate(188.531 -12)" fill="#191847"/>
        <path id="Seat" d="M149.512,145.424H16a16,16,0,0,1-16-16V16A16,16,0,0,1,16,0H149.512a16,16,0,0,1,16,16V129.424a16,16,0,0,1-16,16ZM35.526,32.837a4,4,0,0,0-4,4v71.749a4,4,0,0,0,4,4h94.46a4,4,0,0,0,4-4V36.837a4,4,0,0,0-4-4Z" transform="translate(330.813 380.108) rotate(180)" fill="#c5cfd6"/>
        <path id="LegLower" d="M12.206,137.215q33.3-42.353,45.061-62.8c13.427-23.337,24.416-44.1,27.884-52.035C93.42,3.466,66.113-5.392,59.932,3.431Q45.9,23.462,0,129.495Z" transform="translate(41.448 237.03)" fill="#b28b67"/>
        <path id="LegLower-2" data-name="LegLower" d="M53.192,134.869,94.5,26.548C103.341,6.8,60.67-6.178,54.176,3.011,39.433,23.874,4.392,106.176,0,112.392Z" transform="translate(45.952 231.166)" fill="#2f3676"/>
        <path id="LegLower-3" data-name="LegLower" d="M3.383,6.286C1.942,20.853-1.2,71.243.481,94.5c.482,6.684,1,13.146,1.535,19.207,1.584,18.015,34.788,16.779,32.492-.319C28.792,70.809,18.426,11.178,17.7,6.023,16.684-1.2,4.288-2.869,3.383,6.286Z" transform="translate(215.759 347.068) rotate(141)" fill="#b28b67"/>
        <path id="shoe" d="M4.474,15.967a2,2,0,0,1-2.565-1.348L0,7.894A64.242,64.242,0,0,1,.9,0H57.3s2.2,7.268-2.538,7.848S46.9,8.894,46.9,8.894L20.68,20.581a1,1,0,0,1-1.332-.532l-1.685-4.088s-4.385-2.046-7.127-2.046Z" transform="translate(213.021 349.539) rotate(150)" fill="#e4e4e4"/>
        <path id="shoe-2" data-name="shoe" d="M59.2,5.845a2.2,2.2,0,0,1,2.847,1.581l2.118,7.886a79.429,79.429,0,0,1-1,9.258H.565s-2.44-8.524,2.817-9.2,8.734-1.227,8.734-1.227L41.212.434a1.089,1.089,0,0,1,1.478.624l1.87,4.794s4.867,2.4,7.909,2.4Z" transform="translate(0 362.574)" fill="#e4e4e4"/>
        <path id="Leg_and_Butt" data-name="Leg and Butt" d="M64.964,77.342s51.506-8.74,69-11.953C167.2,59.284,176.9,40.652,171.166,0H109.92C97.763,3.657,8.324,45.233,8.324,45.233-2.4,50.78-.406,67.136,1.554,72.524c.12.33,54.256,96.837,54.256,96.837l50.1-33.245L64.87,81.259S63.244,77.849,64.964,77.342Z" transform="translate(90.359 185.782)" fill="#5c63ab"/>
        <path id="Arm" d="M8.934,51.712,43.342,23.538q14.352-4.7,23.814-11.059c1.465-1.483,3.175-4.421-3.178-3.6S50.9,10.293,49.91,8.162s2.73-4.938.8-7.782Q48.774-2.465,34.666,16L0,32.56Z" transform="matrix(-0.996, 0.087, -0.087, -0.996, 150.655, 220.996)" fill="#b28b67"/>
        <path id="Arm-2" data-name="Arm" d="M66.591,114.661S32.621,33.949,28.011,28.1C25.758,25.236,12.044,18,2.78,14.174-.938,12.637-.2,9.5.864,8.485,9.524.211,17.635,6.094,27.117,8.277c10.389,2.392,6.949-9.866,15.156-8.1-1.2,5.65-4.543,16.4-.66,22.161,2.589,3.843,49.019,87.12,49.019,87.12Z" transform="matrix(-0.978, -0.208, 0.208, -0.978, 334.153, 268.145)" fill="#b28b67"/>
        <path id="Clothes_Back" data-name="Clothes Back" d="M0,124.434l9.531,2.508C29.493,74.352,111.03,44.449,117.6,24.712c2.41-7.238-2.58-11.44.364-13.451L106.193.946C103.846,3.247,99.7-1.7,89.928.652S5.586,60.585,0,124.434Z" transform="matrix(-0.996, 0.087, -0.087, -0.996, 228.747, 196.277)" fill="#db2721"/>
        <path id="Clothes_Body" data-name="Clothes Body" d="M94.451,157.869c-12.612,23.27-85.5-2.25-93.11-25.989C-8.218,102.078,36.621,83.526,32.1,5.088L60.906,0C83.863,33,117.444,115.444,94.451,157.869Z" transform="translate(169.165 66.323)" fill="#ff4133"/>
        <path id="Clothes_Front" data-name="Clothes Front" d="M7.3,0s68.215,41.111,83.11,139.9c2.089,13.853-5.7,16.873-4.58,23.074L69.3,167.543c0-4.564-12.542-6.448-15.777-18.3C42.447,108.672,0,6.491,0,6.491Z" transform="translate(225.422 66.323)" fill="#ff4133"/>
        <rect id="Neck" width="39.318" height="23.608" rx="4" transform="matrix(-0.998, 0.07, -0.07, -0.998, 241.307, 84.253)" fill="#ff4133"/>
      </g>
    </g>
    <g id="Group_4" data-name="Group 4" transform="translate(-176 451.377)">
      <g id="Clock" transform="translate(324.179 179.585)">
        <circle id="Clock_Frame" data-name="Clock Frame" cx="53" cy="53" r="53" fill="#f2f2f2"/>
        <circle id="Time" cx="3" cy="3" r="3" transform="translate(50 8)" fill="rgba(0,0,0,0.1)"/>
        <circle id="Time-2" data-name="Time" cx="3" cy="3" r="3" transform="translate(8 50)" fill="rgba(0,0,0,0.1)"/>
        <circle id="Time-3" data-name="Time" cx="3" cy="3" r="3" transform="translate(92 50)" fill="rgba(0,0,0,0.1)"/>
        <circle id="Time-4" data-name="Time" cx="3" cy="3" r="3" transform="translate(50 92)" fill="rgba(0,0,0,0.1)"/>
        <path id="Hand" d="M2,0,4,35H0Z" transform="translate(51 17)" fill="#afb9c5"/>
        <path id="Hand-2" data-name="Hand" d="M2,0,4,24H0Z" transform="translate(72.113 69.284) rotate(135)" fill="#afb9c5"/>
        <circle id="Time-5" data-name="Time" cx="4" cy="4" r="4" transform="translate(49 49)" fill="#c5cfd6"/>
      </g>
      <g id="Lamp" transform="translate(670.945 122.471)">
        <path id="Body" d="M0,27.852,32.51,6.066C37.98,2.4,46.852,2.4,52.323,6.066l86.55,58c5.251,3.519,8.2,8.291,8.2,13.267v384.2" transform="translate(59.233 10)" fill="none" stroke="#cbcbcb" stroke-miterlimit="10" stroke-width="8"/>
        <rect id="Lamp_Base" data-name="Lamp Base" width="59" height="7" rx="3" transform="translate(176.307 470.529)" fill="#afb9c5"/>
        <g id="Lamp_Top" data-name="Lamp Top" transform="translate(47.066 0) rotate(45)">
          <path id="Lamp-2" data-name="Lamp" d="M33,0h0A33,33,0,0,1,66,33V61a0,0,0,0,1,0,0H0a0,0,0,0,1,0,0V33A33,33,0,0,1,33,0Z" transform="translate(0)" fill="#c5cfd6"/>
          <ellipse id="Lamp-3" data-name="Lamp" cx="33" cy="6.5" rx="33" ry="6.5" transform="translate(0.179 53.562)" fill="#f2f2f2"/>
        </g>
      </g>
      <g id="Big_Leaf_Plant" data-name="Big Leaf Plant" transform="translate(241.179 532)">
        <g id="Big_Ass_Leaf" data-name="Big Ass Leaf" transform="translate(23)">
          <path id="leaf" d="M24.258.173a16.915,16.915,0,0,1,8.586.9c5.665,2.4,7.275,9.1,7.2,14.536-.084,5.855-1.327,12.249,3.124,16.966,2.046,2.169,4.591,3.828,6.6,6.037a28.536,28.536,0,0,1,5.078,7.96c2.29,5.326,3.414,11.59,1.32,17.177-1.844,4.919-6.483,9.359-5.48,14.953C51.729,84.543,57.612,89,61.29,93.351c4.163,4.919,8,11.205,8.625,17.656.6,6.182-2.087,12.434-6.217,17.107C55.448,137.451,43.045,142.028,30.54,142c-5.31-.012-11.321-.252-15.9-3.105a8.763,8.763,0,0,1-3.005-3.247,10.586,10.586,0,0,0-2.906-2.908,17.25,17.25,0,0,1-5.535-7.392c-4.538-11.233-.911-25.129,5.441-35.1,1.505-2.363,2.737-4.637,2.006-7.454C9.874,79.848,8,77.2,6.34,74.669a65.318,65.318,0,0,1-4.792-7.582A17.2,17.2,0,0,1,.066,58.2,30.237,30.237,0,0,1,6.578,42.336C10,37.83,14.022,33.518,14.031,27.615c.01-6.257-4.173-11.824-2.391-18.186a12.123,12.123,0,0,1,4.609-6.916C18.539,1,21.564.5,24.258.173Z" transform="translate(0)" fill="#dde3e9"/>
          <path id="middle_thing" data-name="middle thing" d="M1.386,1.176A1.442,1.442,0,0,1,3.222.051c1.033.289,1.013,1.254.986,2.114a28.41,28.41,0,0,0,.934,7.776C6.462,15.274,8.9,20.186,10.836,25.308s2.839,10.4,1.705,15.816C11.473,46.23,9.795,51.2,8.7,56.315c-.964,4.506-1.989,9.257-.522,13.751,1.412,4.326,4.534,7.849,6.783,11.758a55.439,55.439,0,0,1,6.995,26.31,49.2,49.2,0,0,1-.983,12.828c-.573,2.423-1.343,5.7-3.419,7.37-.957.771-2.595,1.038-3.4-.1-.757-1.071-.093-2.73.147-3.872a58.7,58.7,0,0,0,1-15.015,54.212,54.212,0,0,0-2.346-14.36A48.6,48.6,0,0,0,6.84,83.032C4.252,79.191,1.562,75.341.493,70.789c-1.086-4.623-.2-9.327.976-13.862,1.248-4.8,2.883-9.455,4.573-14.122A24.78,24.78,0,0,0,7.363,29.2C5.567,19.794.76,10.968,1.386,1.176Z" transform="translate(21 9)" fill="#c5cfd6"/>
        </g>
        <g id="Big_Ass_Leaf-2" data-name="Big Ass Leaf" transform="translate(32 10)">
          <path id="leaf-2" data-name="leaf" d="M90.892,1.582a21.492,21.492,0,0,1,9.592,5.536c5.373,5.791,3.724,14.543.758,20.935-3.193,6.88-8.031,13.8-5.3,21.69,1.254,3.629,3.362,6.916,4.551,10.573a36.871,36.871,0,0,1,1.749,12.056c-.129,7.49-2.122,15.483-7.531,21-4.763,4.859-12.551,7.7-14.332,14.833-1.858,7.445,2.684,15.781,4.7,22.835,2.283,7.983,3.455,17.411.784,25.367-2.559,7.625-9.02,13.619-16.334,17-14.613,6.75-31.58,5.712-46.232-.828-6.221-2.777-13.145-6.188-17.011-11.946a11.264,11.264,0,0,1-1.809-5.4A13.591,13.591,0,0,0,2.6,150.278,22.24,22.24,0,0,1,.02,138.656c.615-15.645,12.214-30.192,24.936-38.684,3.015-2.012,5.662-4.06,6.293-7.772.659-3.874-.139-7.986-.748-11.839-.6-3.807-1.537-7.6-1.612-11.459a22.446,22.446,0,0,1,2.959-11.283c3.6-6.647,9.379-11.689,16.021-15.372,6.4-3.547,13.392-6.555,16.523-13.532,3.319-7.4,1.355-16.154,6.807-22.751C73.458,3.233,76.625.807,80.262.182,83.749-.417,87.558.57,90.892,1.582Z" fill="#dde3e9"/>
          <path id="middle_thing-2" data-name="middle thing" d="M51.651.811A1.838,1.838,0,0,1,54.387.44c1.057.883.528,2.016.046,3.02a37.22,37.22,0,0,0-2.98,9.7c-1.248,7.006-.968,14.1-1.389,21.182s-2.128,13.805-6.289,19.624c-3.923,5.486-8.49,10.5-12.446,15.977-3.487,4.831-7.174,9.92-7.812,16.012-.614,5.863,1.191,11.672,1.773,17.48,1.2,12.023-1.084,23.737-5.6,34.823a64.286,64.286,0,0,1-7.867,14.676c-1.939,2.569-4.554,6.043-7.858,6.936-1.524.412-3.578-.131-3.922-1.906-.323-1.665,1.321-3.282,2.2-4.508A76.711,76.711,0,0,0,11.275,136.2a71.04,71.04,0,0,0,4.778-18.235,63.555,63.555,0,0,0-.895-17.357c-1.014-5.906-2.143-11.875-1.009-17.826,1.151-6.044,4.647-11.152,8.4-15.9,3.971-5.026,8.323-9.687,12.743-14.327a32.357,32.357,0,0,0,8.673-15.424C46.79,25.049,45.791,12.078,51.651.811Z" transform="translate(32 13)" fill="#c5cfd6"/>
        </g>
        <g id="Big_Ass_Leaf-3" data-name="Big Ass Leaf" transform="translate(0 56)">
          <path id="leaf-3" data-name="leaf" d="M13.306,0C19.2,0,24.382,3.124,27.953,7.558c4.18,5.19,5.024,11.528,6.721,17.714A15.813,15.813,0,0,0,39.517,33.5c2.315,1.9,5.255,2.283,8.026,3.212A18.73,18.73,0,0,1,59.321,48.5c2.155,6.659-.128,13.374.265,20.122.361,6.2,6.471,10.064,11.387,13.035,4.848,2.93,9.215,5.672,10.675,11.379,1.548,6.053,2.068,12.809-.077,18.788-3.57,9.956-14.019,14.34-24.116,15.02-9.163.617-20.684-.352-27.565-7-4.118-3.98-5.609-9.547-5.424-15.085a45.92,45.92,0,0,1,1.679-10.184,45.944,45.944,0,0,0,1.71-7.145c.64-6.484-5.354-7.73-10.455-9.51A24.88,24.88,0,0,1,3.224,65.425C.285,59.881-.948,53.658.814,47.554A20.863,20.863,0,0,1,5.559,39.2c.974-1.059,2.348-1.942,3.227-3.054a4.12,4.12,0,0,0,.359-3.6C7.837,26.931,3.762,22.278,2.3,16.668.989,11.605,1.767,5.3,6.4,2.038A12.089,12.089,0,0,1,13.306,0Z" transform="translate(0)" fill="#c5cfd6"/>
          <path id="middle_thing-3" data-name="middle thing" d="M3.338.641C9.585,7.3,11.283,16.325,11.781,25.076c.279,4.907-.011,10.083,1.43,14.843,1.234,4.074,4.126,7.188,7.106,10.131,6,5.925,12.693,11.948,14.448,20.523,1.03,5.032.335,10.23,1.758,15.207a41.827,41.827,0,0,0,6.343,12.788c2.231,3.076,5.138,5.431,7.577,8.3.744.875,1.81,2.164,1.5,3.4-.359,1.447-2.2,1.905-3.511,1.678-3.049-.53-5.616-3.442-7.61-5.558a47.877,47.877,0,0,1-7.407-10.159,42.71,42.71,0,0,1-4.8-13.2c-.8-4.827-.4-9.858-2.223-14.491-3.067-7.8-10.5-12.4-15.883-18.471-6.7-7.571-5.7-16.993-5.015-26.305.377-5.118.752-10.9-1.834-15.57C2.672,6.406.471,4.743.047,2.715-.342.858,1.78-1.019,3.338.641Z" transform="translate(18 14)" fill="#afb9c5"/>
        </g>
        <path id="Base" d="M0,0C0,38.058,6.211,58,39,58S78,38.058,78,0Z" transform="translate(28 180)" fill="#89c5cc"/>
      </g>
    </g>
  </g>
</svg>
